<?xml version="1.0" encoding="utf-8"?>
<!-- Generator: Adobe Illustrator 24.3.0, SVG Export Plug-In . SVG Version: 6.00 Build 0)  -->
<svg version="1.1" id="Layer_1" xmlns="http://www.w3.org/2000/svg" x="0px"
	 y="0px"
	 viewBox="0 0 1026.5 1023" style="enable-background:new 0 0 1026.5 1023;" xml:space="preserve">
<style type="text/css">
	.st0{fill:#8C6239;stroke:#603813;stroke-width:29;stroke-miterlimit:10;}
	.st1{fill:#603813;stroke:#603813;stroke-width:29;stroke-miterlimit:10;}
	.st2{fill:#39B54A;stroke:#006837;stroke-width:29;stroke-miterlimit:10;}
	.st3{fill:#006837;stroke:#006837;stroke-width:10;stroke-miterlimit:10;}
	.st4{fill:#8CC63F;stroke:#8CC63F;stroke-width:29;stroke-miterlimit:10;}
</style>
    <path class="st0" d="M196.1,774.6C159,915.9,41.7,1008.5,41.7,1008.5H982c0,0-149-108.5-163.4-233.9"/>
    <ellipse class="st1" cx="512.3" cy="630.9" rx="344.4" ry="310.6"/>
    <ellipse class="st2" cx="512.3" cy="450.6" rx="460.2" ry="434.6"/>
    <path class="st3" d="M103.6,476.3c0.7,76.1,39,132.7,61.4,164.9c66.5,95.6,158.2,139,188.4,152c36.1,15.6,131.9,56.9,241.9,34.5
	c48.6-9.9,90.4-30.3,104.5-37.3c9.1-4.5,48.9-24.5,94.8-62.4c27.6-22.8,81.8-72.1,74.5-81.3c-7.4-9.2-64.3,35.5-141.2,59
	c-160.1,48.9-317.1-21.3-366-43.1c-70.3-31.5-183.1-81.9-215.4-181.9c-17.8-54.9-6.4-109.8-15.3-110.7
	C122.4,369.2,103.1,421.2,103.6,476.3z"/>
    <path class="st4" d="M610.3,106c-28.9,0.4-84.8,8.5-95.8,38.4C499.3,186,574.3,259.8,658.2,280c56.1,13.5,137.8,8.4,150.8-24.9
	C826.8,209.9,720.6,104.5,610.3,106z"/>
</svg>
